<svg width="960" height="230" viewBox="0 0 960 230" fill="none" xmlns="http://www.w3.org/2000/svg">
<path d="M72.332 76.4531C69.168 79.9688 64.5391 82.8008 58.4453 84.9492C52.3516 87.0977 45.6719 88.1719 38.4062 88.1719C27.2344 88.1719 18.3086 84.7539 11.6289 77.918C4.94922 71.082 1.375 61.5703 0.90625 49.3828L0.847656 42C0.847656 33.6016 2.33203 26.2773 5.30078 20.0273C8.26953 13.7383 12.5078 8.91406 18.0156 5.55469C23.5625 2.15625 29.9688 0.457031 37.2344 0.457031C47.8594 0.457031 56.1016 2.89844 61.9609 7.78125C67.8594 12.625 71.2969 19.8711 72.2734 29.5195H52.4688C51.7656 24.7539 50.2422 21.3555 47.8984 19.3242C45.5547 17.293 42.2344 16.2773 37.9375 16.2773C32.7812 16.2773 28.7969 18.4648 25.9844 22.8398C23.1719 27.2148 21.7461 33.4648 21.707 41.5898V46.7461C21.707 55.2617 23.1523 61.668 26.043 65.9648C28.9727 70.2227 33.5625 72.3516 39.8125 72.3516C45.1641 72.3516 49.1484 71.1602 51.7656 68.7773V55.5352H37.4688V41.4141H72.332V76.4531ZM922.82 56.8828H911.688V87H891.121V1.6875H924.695C934.812 1.6875 942.723 3.93359 948.426 8.42578C954.129 12.918 956.98 19.2656 956.98 27.4688C956.98 33.4062 955.77 38.3281 953.348 42.2344C950.965 46.1406 947.215 49.3047 942.098 51.7266L959.91 86.1211V87H937.879L922.82 56.8828ZM911.688 41.0039H924.695C928.602 41.0039 931.531 39.9883 933.484 37.957C935.477 35.8867 936.473 33.0156 936.473 29.3438C936.473 25.6719 935.477 22.8008 933.484 20.7305C931.492 18.6211 928.562 17.5664 924.695 17.5664H911.688V41.0039ZM291.531 187.102C291.531 195.422 289.988 202.785 286.902 209.191C283.816 215.598 279.422 220.539 273.719 224.016C268.055 227.453 261.59 229.172 254.324 229.172C247.059 229.172 240.613 227.512 234.988 224.191C229.363 220.832 224.969 216.047 221.805 209.836C218.68 203.625 217.039 196.496 216.883 188.449V183.645C216.883 175.285 218.406 167.922 221.453 161.555C224.539 155.148 228.934 150.207 234.637 146.73C240.379 143.254 246.902 141.516 254.207 141.516C261.434 141.516 267.879 143.234 273.543 146.672C279.207 150.109 283.602 155.012 286.727 161.379C289.891 167.707 291.492 174.973 291.531 183.176V187.102ZM270.613 183.527C270.613 175.051 269.188 168.625 266.336 164.25C263.523 159.836 259.48 157.629 254.207 157.629C243.895 157.629 238.445 165.363 237.859 180.832L237.801 187.102C237.801 195.461 239.188 201.887 241.961 206.379C244.734 210.871 248.855 213.117 254.324 213.117C259.52 213.117 263.523 210.91 266.336 206.496C269.148 202.082 270.574 195.734 270.613 187.453V183.527ZM355.867 194.016H322.703V228H302.137V142.688H359.207V158.566H322.703V178.195H355.867V194.016ZM421.492 194.016H388.328V228H367.762V142.688H424.832V158.566H388.328V178.195H421.492V194.016ZM465.086 197.883H453.953V228H433.387V142.688H466.961C477.078 142.688 484.988 144.934 490.691 149.426C496.395 153.918 499.246 160.266 499.246 168.469C499.246 174.406 498.035 179.328 495.613 183.234C493.23 187.141 489.48 190.305 484.363 192.727L502.176 227.121V228H480.145L465.086 197.883ZM453.953 182.004H466.961C470.867 182.004 473.797 180.988 475.75 178.957C477.742 176.887 478.738 174.016 478.738 170.344C478.738 166.672 477.742 163.801 475.75 161.73C473.758 159.621 470.828 158.566 466.961 158.566H453.953V182.004ZM583.914 187.102C583.914 195.422 582.371 202.785 579.285 209.191C576.199 215.598 571.805 220.539 566.102 224.016C560.438 227.453 553.973 229.172 546.707 229.172C539.441 229.172 532.996 227.512 527.371 224.191C521.746 220.832 517.352 216.047 514.188 209.836C511.062 203.625 509.422 196.496 509.266 188.449V183.645C509.266 175.285 510.789 167.922 513.836 161.555C516.922 155.148 521.316 150.207 527.02 146.73C532.762 143.254 539.285 141.516 546.59 141.516C553.816 141.516 560.262 143.234 565.926 146.672C571.59 150.109 575.984 155.012 579.109 161.379C582.273 167.707 583.875 174.973 583.914 183.176V187.102ZM562.996 183.527C562.996 175.051 561.57 168.625 558.719 164.25C555.906 159.836 551.863 157.629 546.59 157.629C536.277 157.629 530.828 165.363 530.242 180.832L530.184 187.102C530.184 195.461 531.57 201.887 534.344 206.379C537.117 210.871 541.238 213.117 546.707 213.117C551.902 213.117 555.906 210.91 558.719 206.496C561.531 202.082 562.957 195.734 562.996 187.453V183.527ZM641.688 212.062H613.504L608.582 228H586.609L617.898 142.688H637.234L668.758 228H646.668L641.688 212.062ZM618.426 196.184H636.766L627.566 166.594L618.426 196.184ZM675.027 228V142.688H702.508C710.047 142.688 716.824 144.406 722.84 147.844C728.855 151.242 733.543 156.066 736.902 162.316C740.301 168.527 742.02 175.5 742.059 183.234V187.16C742.059 194.973 740.398 201.984 737.078 208.195C733.797 214.367 729.148 219.211 723.133 222.727C717.156 226.203 710.477 227.961 703.094 228H675.027ZM695.594 158.566V212.18H702.742C708.641 212.18 713.172 210.09 716.336 205.91C719.5 201.691 721.082 195.441 721.082 187.16V183.469C721.082 175.227 719.5 169.016 716.336 164.836C713.172 160.656 708.562 158.566 702.508 158.566H695.594Z" fill="url(#paint0_linear_37_2635)"/>
<defs>
<linearGradient id="paint0_linear_37_2635" x1="781.184" y1="53.4998" x2="304.521" y2="-157.118" gradientUnits="userSpaceOnUse">
<stop stop-color="#C1A791"/>
<stop offset="1" stop-color="#E5D4C4"/>
</linearGradient>
</defs>
</svg>