<svg width="790" height="86" viewBox="0 0 790 86" fill="none" xmlns="http://www.w3.org/2000/svg">
<path d="M32.5352 55.8828H21.4023V86H0.835938V0.6875H34.4102C44.5273 0.6875 52.4375 2.93359 58.1406 7.42578C63.8438 11.918 66.6953 18.2656 66.6953 26.4688C66.6953 32.4062 65.4844 37.3281 63.0625 41.2344C60.6797 45.1406 56.9297 48.3047 51.8125 50.7266L69.625 85.1211V86H47.5938L32.5352 55.8828ZM21.4023 40.0039H34.4102C38.3164 40.0039 41.2461 38.9883 43.1992 36.957C45.1914 34.8867 46.1875 32.0156 46.1875 28.3438C46.1875 24.6719 45.1914 21.8008 43.1992 19.7305C41.207 17.6211 38.2773 16.5664 34.4102 16.5664H21.4023V40.0039ZM127.574 70.0625H99.3906L94.4688 86H72.4961L103.785 0.6875H123.121L154.645 86H132.555L127.574 70.0625ZM104.312 54.1836H122.652L113.453 24.5938L104.312 54.1836ZM189.449 62.7969L206.441 0.6875H229.41L200.699 86H178.199L149.723 0.6875H172.516L189.449 62.7969ZM288.59 49.8477H256.246V70.1797H294.449V86H235.68V0.6875H294.566V16.5664H256.246V34.5547H288.59V49.8477ZM323.395 70.1797H359.195V86H302.828V0.6875H323.395V70.1797ZM367.867 86V0.6875H398.512C409.488 0.6875 417.828 2.69922 423.531 6.72266C429.273 10.7461 432.145 16.5859 432.145 24.2422C432.145 28.6562 431.129 32.4258 429.098 35.5508C427.066 38.6758 424.078 40.9805 420.133 42.4648C424.586 43.6367 428.004 45.8242 430.387 49.0273C432.77 52.2305 433.961 56.1367 433.961 60.7461C433.961 69.1055 431.305 75.3945 425.992 79.6133C420.719 83.793 412.887 85.9219 402.496 86H367.867ZM388.434 49.7305V70.1797H401.91C405.621 70.1797 408.473 69.3398 410.465 67.6602C412.457 65.9414 413.453 63.5391 413.453 60.4531C413.453 53.3438 409.918 49.7695 402.848 49.7305H388.434ZM388.434 36.2539H399.156C403.648 36.2148 406.852 35.3945 408.766 33.793C410.68 32.1914 411.637 29.8281 411.637 26.7031C411.637 23.1094 410.602 20.5313 408.531 18.9688C406.461 17.3672 403.121 16.5664 398.512 16.5664H388.434V36.2539ZM467.242 86H446.734V0.6875H467.242V86ZM510.543 54.2422L502.105 63.5V86H481.539V0.6875H502.105V38.3047L509.254 27.4648L527.652 0.6875H553.082L524.254 38.4219L553.082 86H528.707L510.543 54.2422ZM611.207 49.8477H578.863V70.1797H617.066V86H558.297V0.6875H617.184V16.5664H578.863V34.5547H611.207V49.8477ZM708.238 49.8477H675.895V70.1797H714.098V86H655.328V0.6875H714.215V16.5664H675.895V34.5547H708.238V49.8477ZM722.477 86V0.6875H749.957C757.496 0.6875 764.273 2.40625 770.289 5.84375C776.305 9.24219 780.992 14.0664 784.352 20.3164C787.75 26.5273 789.469 33.5 789.508 41.2344V45.1602C789.508 52.9727 787.848 59.9844 784.527 66.1953C781.246 72.3672 776.598 77.2109 770.582 80.7266C764.605 84.2031 757.926 85.9609 750.543 86H722.477ZM743.043 16.5664V70.1797H750.191C756.09 70.1797 760.621 68.0898 763.785 63.9102C766.949 59.6914 768.531 53.4414 768.531 45.1602V41.4688C768.531 33.2266 766.949 27.0156 763.785 22.8359C760.621 18.6563 756.012 16.5664 749.957 16.5664H743.043Z" fill="url(#paint0_linear_37_2634)"/>
<defs>
<linearGradient id="paint0_linear_37_2634" x1="643.583" y1="13.2499" x2="336.426" y2="-211.313" gradientUnits="userSpaceOnUse">
<stop stop-color="#C1A791"/>
<stop offset="1" stop-color="#E5D4C4"/>
</linearGradient>
</defs>
</svg>